<svg width="18" height="18" viewBox="0 0 18 18" fill="none" xmlns="http://www.w3.org/2000/svg">
<path d="M5.49461 14.4C4.48726 14.4 3.67223 15.21 3.67223 16.2C3.67223 17.19 4.48726 18 5.49461 18C6.50195 18 7.32614 17.19 7.32614 16.2C7.32614 15.21 6.50195 14.4 5.49461 14.4ZM14.6523 14.4C13.6449 14.4 12.8299 15.21 12.8299 16.2C12.8299 17.19 13.6449 18 14.6523 18C15.6596 18 16.4838 17.19 16.4838 16.2C16.4838 15.21 15.6596 14.4 14.6523 14.4ZM6.50195 9.9H13.3244C14.0112 9.9 14.6157 9.531 14.927 8.973L17.8941 3.447C18.006 3.2389 18.0303 2.99594 17.9618 2.7704C17.8933 2.54486 17.7375 2.35476 17.5278 2.241C17.4216 2.18384 17.3049 2.14803 17.1845 2.13566C17.064 2.12329 16.9423 2.13461 16.8264 2.16895C16.7104 2.2033 16.6026 2.25999 16.5092 2.33571C16.4158 2.41143 16.3387 2.50468 16.2823 2.61L13.3244 8.1H6.89573L2.99456 0H0.915768C0.412095 0 0 0.405 0 0.9C0 1.395 0.412095 1.8 0.915768 1.8H1.83154L5.1283 8.631L3.89201 10.827C3.2235 12.033 4.10264 13.5 5.49461 13.5H15.568C16.0717 13.5 16.4838 13.095 16.4838 12.6C16.4838 12.105 16.0717 11.7 15.568 11.7H5.49461L6.50195 9.9Z" fill="#C73153"/>
</svg>
