<svg width="50" height="50" viewBox="0 0 50 50" fill="none" xmlns="http://www.w3.org/2000/svg">
<g clip-path="url(#clip0_57_1642)">
<path d="M11.6931 11.1015C13.1207 10.7063 14.5993 10.527 16.0799 10.5696C18.1546 10.6009 20.1442 11.3993 21.6651 12.8108C22.0804 13.1993 22.433 13.6565 22.8275 14.0718C23.0128 14.2661 23.2309 14.4274 23.5357 14.6904C23.6277 14.4368 23.6938 14.1744 23.7329 13.9075C23.7509 12.6195 23.7837 11.3286 23.7329 10.0436C23.6894 8.56012 23.3319 7.10269 22.6841 5.76739C21.5366 3.42756 19.6719 2.58486 17.2633 3.23631C16.6226 3.42152 16.0004 3.66561 15.4046 3.96545C14.4603 4.42266 13.5519 4.94859 12.6165 5.42074C10.996 6.2702 9.27097 6.90315 7.48564 7.30336C6.91188 8.58534 6.63398 9.93007 6.11401 11.4451C6.79235 11.5049 7.25853 11.5706 7.72769 11.5796C9.06537 11.6066 10.4002 11.4457 11.6931 11.1015Z" fill="url(#paint0_linear_57_1642)"/>
<path d="M35.2319 23.5208C35.5525 23.6044 35.8792 23.6623 36.209 23.6941C37.6434 23.6941 39.0778 23.6941 40.5092 23.6254C41.8022 23.5534 43.0685 23.2275 44.2356 22.6662C46.417 21.6232 47.2239 19.7526 46.8473 17.9088C46.6448 16.7784 46.2528 15.6903 45.6879 14.6904C44.5745 12.849 43.6837 10.8819 43.0343 8.8304C42.8819 8.33434 42.6936 7.84725 42.5173 7.33625L38.4742 6.0752C38.4234 6.81928 38.3726 7.33326 38.3606 7.85322C38.3621 9.14465 38.5462 10.4294 38.9075 11.6693C39.3204 13.2528 39.4778 14.8921 39.3736 16.5252C39.3223 18.0649 38.8009 19.5519 37.8795 20.7865C37.2911 21.4736 36.6635 22.1262 35.9998 22.7409C35.7727 22.95 35.5606 23.1772 35.2319 23.5208Z" fill="url(#paint1_linear_57_1642)"/>
<path d="M12.1175 29.1537C12.7289 28.3613 13.4309 27.6432 14.2093 27.0141C14.3767 26.8677 14.6396 26.781 14.55 26.4165C14.3852 26.3611 14.2149 26.324 14.042 26.3059C12.5478 26.3059 11.0746 26.2133 9.60736 26.3328C8.51687 26.4346 7.44357 26.6736 6.41288 27.044C5.64751 27.3143 4.94283 27.7327 4.33901 28.2752C2.89866 29.584 2.75522 31.2635 3.32897 33.0176C3.65103 33.9663 4.06122 34.8827 4.55417 35.7549C5.52536 37.515 6.42185 39.299 6.9448 41.2443C7.0195 41.5193 7.11812 41.7912 7.21076 42.0601C7.26927 42.2416 7.37334 42.405 7.51303 42.5347C7.65272 42.6645 7.82336 42.7562 8.00863 42.8012C8.90511 43.0791 9.8016 43.3989 10.722 43.6977C10.8949 43.7333 11.0715 43.7483 11.2479 43.7425C11.5796 43.3899 11.5468 42.9985 11.5468 42.6279C11.6364 40.9395 11.3226 39.299 10.9222 37.6763C10.6018 36.3287 10.49 34.94 10.5905 33.5585C10.6653 31.9739 11.1955 30.4446 12.1175 29.1537Z" fill="url(#paint2_linear_57_1642)"/>
<path d="M38.1604 38.9105C37.4754 39.1189 36.7764 39.2776 36.0686 39.3856C32.665 39.8339 29.7334 38.9194 27.4534 36.2479C27.306 36.0593 27.1462 35.8806 26.9752 35.713C26.8099 35.5969 26.6337 35.4968 26.4493 35.4142C26.3762 35.6196 26.3242 35.8318 26.2939 36.0477C26.2939 37.5418 26.264 39.0121 26.2939 40.4913C26.3603 41.9308 26.7625 43.3349 27.4683 44.5912C28.4216 46.3842 29.9874 47.1432 32.0015 46.8623C33.2327 46.6663 34.4134 46.2307 35.4769 45.5803C36.7856 44.7893 38.1616 44.1154 39.5888 43.5662C40.3508 43.2883 41.1188 43.0283 41.8928 42.7773C42.2245 42.6697 42.5412 42.5442 42.6578 42.1946C43.0313 41.068 43.5543 39.9893 43.7455 38.6087C43.3967 38.5085 43.0412 38.4336 42.6817 38.3845C41.1558 38.3061 39.6276 38.4839 38.1604 38.9105Z" fill="url(#paint3_linear_57_1642)"/>
<path d="M23.73 40.052C23.7778 38.7163 23.7509 37.3775 23.73 36.0417C23.6909 35.7803 23.6238 35.5238 23.5298 35.2767C22.5825 36.1732 21.7756 37.0428 20.8702 37.7899C19.9757 38.5191 18.9103 39.0086 17.7743 39.2123C16.6089 39.4275 15.4136 39.4723 14.0748 39.6068C14.0748 40.0729 14.0748 40.4465 14.0748 40.8021C14.0748 41.6986 14.0599 42.613 14.036 43.5154C14.0208 43.8021 13.9879 44.0875 13.9374 44.3701C13.8839 44.6045 13.9112 44.8501 14.0148 45.0671C14.1184 45.284 14.2922 45.4596 14.5081 45.5654C15.5656 46.2223 16.7427 46.6631 17.9716 46.8623C19.8183 47.1313 21.2587 46.4977 22.2657 44.9349C22.4519 44.6574 22.6119 44.3633 22.7438 44.0563C23.308 42.7908 23.6419 41.4348 23.73 40.052Z" fill="url(#paint4_linear_57_1642)"/>
<path d="M5.55822 22.5675C6.79372 23.2053 8.15261 23.5682 9.5416 23.6313C10.97 23.724 12.4044 23.6821 13.8388 23.6762C14.1693 23.6388 14.4962 23.5739 14.8159 23.4819C14.3378 23.0576 13.9941 22.7438 13.6415 22.442C12.1862 21.1899 11.1553 19.6659 10.7967 17.7653C10.6812 16.9162 10.6143 16.0612 10.5965 15.2044C10.5696 14.8308 10.6772 14.4304 10.3215 14.0927C9.45195 14.0927 8.54949 14.1166 7.64703 14.0927C6.74456 14.0688 5.85405 13.9702 4.83206 13.8985C4.07333 14.9144 3.5303 16.0747 3.23631 17.3081C2.59682 19.6181 3.42458 21.423 5.55822 22.5675Z" fill="url(#paint5_linear_57_1642)"/>
<path d="M26.288 13.776C26.3296 14.1138 26.3945 14.4483 26.4822 14.7771C27.0201 14.1794 27.3279 13.8179 27.6446 13.4712C28.7563 12.2079 30.2173 11.3022 31.8432 10.8684C32.7741 10.6558 33.7272 10.5554 34.6821 10.5696C35.0915 10.5696 35.5487 10.6921 35.9371 10.2708C35.9102 8.65409 35.7519 6.98364 36.0656 5.32813C36.0936 5.16042 36.0636 4.98817 35.9805 4.83984C35.8973 4.69151 35.7661 4.57598 35.6084 4.51233C34.6255 3.91837 33.5615 3.47043 32.4498 3.18254C30.2355 2.68649 28.3499 3.60389 27.3548 5.65385C26.7028 6.93729 26.3397 8.34792 26.291 9.78665C26.2671 11.0985 26.279 12.4373 26.288 13.776Z" fill="url(#paint6_linear_57_1642)"/>
<path d="M44.887 27.6895C43.458 26.8059 41.8156 26.3277 40.1357 26.3059C38.7551 26.2491 37.3685 26.288 35.9849 26.3059C35.7064 26.3421 35.4315 26.4021 35.1631 26.4852C35.5247 26.784 35.7249 26.9663 35.9311 27.1336C38.1813 28.9475 39.4245 31.2515 39.3736 34.189C39.357 34.4746 39.357 34.761 39.3736 35.0466C39.4159 35.3246 39.4738 35.5999 39.547 35.8714L45.1141 36.0059C45.9598 34.9181 46.2168 34.3802 46.7218 32.656C47.3075 30.6359 46.6501 28.831 44.887 27.6895Z" fill="url(#paint7_linear_57_1642)"/>
<path d="M27.1545 26.5001C26.9527 26.5046 26.7521 26.5327 26.5569 26.5838C26.5082 26.7209 26.4761 26.8634 26.4612 27.0081C26.7451 29.3569 27.3757 31.5981 28.6965 33.5824C30.358 36.0895 32.7187 37.1384 35.698 36.8187C36.5945 36.723 36.729 36.5856 36.8754 35.6861C36.9154 35.451 36.9384 35.2133 36.9442 34.9749C36.983 32.4528 35.9969 30.4148 33.9559 28.9475C31.9149 27.4803 29.6079 26.793 27.1545 26.5001Z" fill="url(#paint8_linear_57_1642)"/>
<path d="M28.6158 16.4834C27.4205 18.36 26.8229 20.4667 26.4762 22.6512C26.461 22.886 26.461 23.1216 26.4762 23.3564C26.6952 23.4137 26.9195 23.4477 27.1456 23.458C28.8092 23.2983 30.4332 22.8556 31.9478 22.1491C33.1399 21.6517 34.2163 20.9131 35.1094 19.9796C35.8488 19.1953 36.39 18.2455 36.6878 17.2095C36.9857 16.1735 37.0316 15.0813 36.8216 14.024C36.8019 13.805 36.7025 13.601 36.5422 13.4506C36.3818 13.3002 36.1718 13.2139 35.9521 13.2082C33.1012 12.8884 30.612 13.3696 28.6158 16.4834Z" fill="url(#paint9_linear_57_1642)"/>
<path d="M21.3363 33.5584C22.6602 31.5503 23.1622 29.2732 23.5238 26.9513C23.5238 26.8677 23.476 26.772 23.4162 26.5748C23.2617 26.5241 23.1006 26.4959 22.9381 26.4911C22.1341 26.5973 21.3362 26.7449 20.5474 26.9334C18.6499 27.4534 16.824 28.1467 15.3418 29.5213C13.4771 31.2545 12.8167 33.406 13.1544 35.8893C13.2411 36.5228 13.4353 36.723 14.0509 36.8097C16.9286 37.2161 19.5852 36.2091 21.3363 33.5584Z" fill="url(#paint10_linear_57_1642)"/>
<path d="M14.1794 13.1843C13.4802 13.253 13.2501 13.4831 13.1574 14.1495C12.7958 16.8181 13.5728 19.0623 15.7214 20.7417C17.8699 22.4211 20.401 23.2489 23.1234 23.461C23.204 23.461 23.2907 23.3893 23.3744 23.3505C23.4043 23.3146 23.455 23.2847 23.464 23.2459C23.5089 23.1112 23.5282 22.9693 23.5208 22.8275C23.1234 20.7656 22.711 18.7126 21.6173 16.8689C19.6749 13.5907 17.1707 12.8915 14.1794 13.1843Z" fill="url(#paint11_linear_57_1642)"/>
<path d="M24.9821 4.66171C25.6079 4.65707 26.2069 4.40723 26.6505 3.96584C27.0941 3.52446 27.347 2.92671 27.3548 2.30096C27.3376 1.67425 27.0724 1.07998 26.6175 0.648579C26.1625 0.217182 25.555 -0.0160833 24.9283 -1.51005e-05C24.3257 0.0105462 23.7505 0.253202 23.3224 0.677397C22.8943 1.10159 22.6464 1.67461 22.6303 2.27706C22.6318 2.90339 22.879 3.50411 23.3188 3.95006C23.7586 4.396 24.3558 4.65154 24.9821 4.66171Z" fill="url(#paint12_linear_57_1642)"/>
<path d="M47.5825 22.6154C47.272 22.6277 46.967 22.7011 46.6849 22.8314C46.4028 22.9617 46.1492 23.1463 45.9385 23.3747C45.7278 23.6032 45.5643 23.8709 45.4572 24.1626C45.3501 24.4543 45.3016 24.7642 45.3144 25.0747C45.3451 25.6845 45.6133 26.258 46.0614 26.6725C46.5096 27.0871 47.1022 27.3098 47.7125 27.293C48.3228 27.2762 48.9023 27.0213 49.327 26.5827C49.7517 26.1441 49.9879 25.5567 49.9851 24.9462C49.9824 24.6348 49.9179 24.3271 49.7953 24.0408C49.6727 23.7545 49.4945 23.4955 49.2709 23.2786C49.0474 23.0618 48.7831 22.8915 48.4933 22.7776C48.2034 22.6638 47.8938 22.6086 47.5825 22.6154Z" fill="url(#paint13_linear_57_1642)"/>
<path d="M4.65279 25.003C4.664 24.6905 4.61211 24.3789 4.50024 24.0869C4.38837 23.7949 4.21882 23.5284 4.00169 23.3033C3.78456 23.0783 3.52431 22.8993 3.23648 22.777C2.94864 22.6547 2.63913 22.5917 2.32641 22.5917C2.01369 22.5917 1.70417 22.6547 1.41634 22.777C1.1285 22.8993 0.868257 23.0783 0.651127 23.3033C0.433997 23.5284 0.264438 23.7949 0.152572 24.0869C0.040705 24.3789 -0.0111731 24.6905 2.94371e-05 25.003C0.021629 25.6056 0.276182 26.1762 0.710103 26.5949C1.14402 27.0135 1.72346 27.2475 2.32641 27.2475C2.92936 27.2475 3.50879 27.0135 3.94271 26.5949C4.37663 26.1762 4.63119 25.6056 4.65279 25.003Z" fill="url(#paint14_linear_57_1642)"/>
<path d="M25.0388 45.2994C24.4164 45.3119 23.8222 45.5617 23.3778 45.9978C22.9335 46.4338 22.6725 47.0231 22.6482 47.6452C22.6501 48.2452 22.8804 48.8219 23.2923 49.2582C23.7041 49.6945 24.2666 49.9576 24.8655 49.994C25.4918 50.0202 26.1033 49.7993 26.5683 49.379C27.0333 48.9587 27.3147 48.3726 27.3518 47.7468C27.3477 47.1219 27.1067 46.5217 26.6774 46.0675C26.2482 45.6132 25.6626 45.3388 25.0388 45.2994Z" fill="url(#paint15_linear_57_1642)"/>
</g>
<defs>
<linearGradient id="paint0_linear_57_1642" x1="6.11401" y1="8.85429" x2="23.7658" y2="8.85429" gradientUnits="userSpaceOnUse">
<stop stop-color="#971E44"/>
<stop offset="1" stop-color="#C73153"/>
</linearGradient>
<linearGradient id="paint1_linear_57_1642" x1="35.2319" y1="14.8936" x2="46.934" y2="14.8936" gradientUnits="userSpaceOnUse">
<stop stop-color="#971E44"/>
<stop offset="1" stop-color="#C73153"/>
</linearGradient>
<linearGradient id="paint2_linear_57_1642" x1="3.0152" y1="35.0018" x2="14.5709" y2="35.0018" gradientUnits="userSpaceOnUse">
<stop stop-color="#971E44"/>
<stop offset="1" stop-color="#C73153"/>
</linearGradient>
<linearGradient id="paint3_linear_57_1642" x1="26.282" y1="41.1696" x2="43.7575" y2="41.1696" gradientUnits="userSpaceOnUse">
<stop stop-color="#971E44"/>
<stop offset="1" stop-color="#C73153"/>
</linearGradient>
<linearGradient id="paint4_linear_57_1642" x1="13.9284" y1="41.1039" x2="23.7599" y2="41.1039" gradientUnits="userSpaceOnUse">
<stop stop-color="#971E44"/>
<stop offset="1" stop-color="#C73153"/>
</linearGradient>
<linearGradient id="paint5_linear_57_1642" x1="3.02415" y1="18.7873" x2="14.8129" y2="18.7873" gradientUnits="userSpaceOnUse">
<stop stop-color="#971E44"/>
<stop offset="1" stop-color="#C73153"/>
</linearGradient>
<linearGradient id="paint6_linear_57_1642" x1="26.276" y1="8.89913" x2="36.0836" y2="8.89913" gradientUnits="userSpaceOnUse">
<stop stop-color="#971E44"/>
<stop offset="1" stop-color="#C73153"/>
</linearGradient>
<linearGradient id="paint7_linear_57_1642" x1="35.1661" y1="31.138" x2="46.937" y2="31.138" gradientUnits="userSpaceOnUse">
<stop stop-color="#971E44"/>
<stop offset="1" stop-color="#C73153"/>
</linearGradient>
<linearGradient id="paint8_linear_57_1642" x1="26.4553" y1="31.6908" x2="36.9412" y2="31.6908" gradientUnits="userSpaceOnUse">
<stop stop-color="#971E44"/>
<stop offset="1" stop-color="#C73153"/>
</linearGradient>
<linearGradient id="paint9_linear_57_1642" x1="26.4613" y1="18.2943" x2="36.9412" y2="18.2943" gradientUnits="userSpaceOnUse">
<stop stop-color="#971E44"/>
<stop offset="1" stop-color="#C73153"/>
</linearGradient>
<linearGradient id="paint10_linear_57_1642" x1="13.0707" y1="31.6878" x2="23.5238" y2="31.6878" gradientUnits="userSpaceOnUse">
<stop stop-color="#971E44"/>
<stop offset="1" stop-color="#C73153"/>
</linearGradient>
<linearGradient id="paint11_linear_57_1642" x1="13.0708" y1="18.2913" x2="23.5268" y2="18.2913" gradientUnits="userSpaceOnUse">
<stop stop-color="#971E44"/>
<stop offset="1" stop-color="#C73153"/>
</linearGradient>
<linearGradient id="paint12_linear_57_1642" x1="22.6333" y1="2.33085" x2="27.3578" y2="2.33085" gradientUnits="userSpaceOnUse">
<stop stop-color="#971E44"/>
<stop offset="1" stop-color="#C73153"/>
</linearGradient>
<linearGradient id="paint13_linear_57_1642" x1="45.3144" y1="24.9522" x2="49.9851" y2="24.9522" gradientUnits="userSpaceOnUse">
<stop stop-color="#971E44"/>
<stop offset="1" stop-color="#C73153"/>
</linearGradient>
<linearGradient id="paint14_linear_57_1642" x1="2.93847e-05" y1="24.9492" x2="4.65279" y2="24.9492" gradientUnits="userSpaceOnUse">
<stop stop-color="#971E44"/>
<stop offset="1" stop-color="#C73153"/>
</linearGradient>
<linearGradient id="paint15_linear_57_1642" x1="22.6362" y1="47.6512" x2="27.3518" y2="47.6512" gradientUnits="userSpaceOnUse">
<stop stop-color="#971E44"/>
<stop offset="1" stop-color="#C73153"/>
</linearGradient>
<clipPath id="clip0_57_1642">
<rect width="49.9851" height="50" fill="white"/>
</clipPath>
</defs>
</svg>
